HIERARCHY
ROOT character_B_root
{
	OFFSET 0.000000 0.000000 0.000000
	CHANNELS 6 Xposition Yposition Zposition Xrotation Yrotation Zrotation
	JOINT character_B_pelvis
	{
		OFFSET 0.000000 0.000000 0.000000
		CHANNELS 3 Xrotation Yrotation Zrotation
		JOINT character_B_spine
		{
			OFFSET -0.005949 0.551378 0.000000
			CHANNELS 3 Xrotation Yrotation Zrotation
			JOINT character_B_head
			{
				OFFSET -0.011221 0.241134 0.000000
				CHANNELS 3 Xrotation Yrotation Zrotation
				JOINT character_B_nose
				{
					OFFSET -0.004159 -0.142665 -0.000261
					CHANNELS 3 Xrotation Yrotation Zrotation
					End Site
					{
						OFFSET 0.000000 0.050000 0.000000
					}
				}
			}
			JOINT character_B_left_shoulder
			{
				OFFSET 0.093188 -0.066956 0.092540
				CHANNELS 3 Xrotation Yrotation Zrotation
				JOINT character_B_left_elbow
				{
					OFFSET 0.026481 -0.252143 -0.089385
					CHANNELS 3 Xrotation Yrotation Zrotation
					JOINT character_B_left_wrist
					{
						OFFSET -0.001396 -0.164778 -0.154831
						CHANNELS 3 Xrotation Yrotation Zrotation
						End Site
						{
							OFFSET 0.000000 0.050000 0.000000
						}
					}
				}
			}
			JOINT character_B_right_shoulder
			{
				OFFSET -0.052646 -0.054758 0.152841
				CHANNELS 3 Xrotation Yrotation Zrotation
				JOINT character_B_right_elbow
				{
					OFFSET -0.025750 -0.252567 -0.055740
					CHANNELS 3 Xrotation Yrotation Zrotation
					JOINT character_B_right_wrist
					{
						OFFSET 0.022565 -0.178373 -0.161123
						CHANNELS 3 Xrotation Yrotation Zrotation
						End Site
						{
							OFFSET 0.000000 0.050000 0.000000
						}
					}
				}
			}
		}
		JOINT character_B_left_hip
		{
			OFFSET 0.053047 -0.014449 0.105832
			CHANNELS 3 Xrotation Yrotation Zrotation
			JOINT character_B_left_knee
			{
				OFFSET 0.010852 -0.388560 0.128200
				CHANNELS 3 Xrotation Yrotation Zrotation
				JOINT character_B_left_ankle
				{
					OFFSET -0.005897 -0.374408 0.161260
					CHANNELS 3 Xrotation Yrotation Zrotation
					JOINT character_B_left_big_toe
					{
						OFFSET 0.012109 -0.098215 0.034452
						CHANNELS 3 Xrotation Yrotation Zrotation
						End Site
						{
							OFFSET 0.000000 0.050000 0.000000
						}
					}
					JOINT character_B_left_small_toe
					{
						OFFSET 0.041617 -0.095586 0.019459
						CHANNELS 3 Xrotation Yrotation Zrotation
						End Site
						{
							OFFSET 0.000000 0.050000 0.000000
						}
					}
					JOINT character_B_left_heel
					{
						OFFSET -0.014884 -0.052778 0.025198
						CHANNELS 3 Xrotation Yrotation Zrotation
						End Site
						{
							OFFSET 0.000000 0.050000 0.000000
						}
					}
				}
			}
		}
		JOINT character_B_right_hip
		{
			OFFSET -0.043381 -0.011457 0.270438
			CHANNELS 3 Xrotation Yrotation Zrotation
			JOINT character_B_right_knee
			{
				OFFSET 0.014721 -0.382947 0.164918
				CHANNELS 3 Xrotation Yrotation Zrotation
				JOINT character_B_right_ankle
				{
					OFFSET 0.029970 -0.363014 0.179744
					CHANNELS 3 Xrotation Yrotation Zrotation
					JOINT character_B_right_big_toe
					{
						OFFSET 0.007171 -0.100675 0.041990
						CHANNELS 3 Xrotation Yrotation Zrotation
						End Site
						{
							OFFSET 0.000000 0.050000 0.000000
						}
					}
					JOINT character_B_right_small_toe
					{
						OFFSET -0.022736 -0.093093 0.035638
						CHANNELS 3 Xrotation Yrotation Zrotation
						End Site
						{
							OFFSET 0.000000 0.050000 0.000000
						}
					}
					JOINT character_B_right_heel
					{
						OFFSET 0.012696 -0.052984 0.028899
						CHANNELS 3 Xrotation Yrotation Zrotation
						End Site
						{
							OFFSET 0.000000 0.050000 0.000000
						}
					}
				}
			}
		}
	}
}
MOTION
Frames: 14
Frame Time: 0.03333333
0.155572 -0.213991 0.473997 0.000000 0.000000 0.000000 2.030894 5.968085 1.246531 28.667047 -24.790288 5.088935 -26.496802 18.173064 1.938763 -0.000000 0.000000 0.000000 -23.536805 18.113639 8.893076 29.862894 -0.627203 -6.664295 0.000000 0.000000 0.000000 -21.833815 18.472134 0.440532 -25.329382 5.474523 -4.188631 -0.000000 0.000000 -0.000000 -13.101241 -3.835810 6.204621 14.003160 -8.330592 -17.414367 -17.251482 -1.236372 19.328834 -0.000000 0.000000 0.000000 -0.000000 0.000000 0.000000 -0.000000 0.000000 0.000000 -6.558234 -4.484508 1.895868 -23.012703 -4.025487 -14.109286 28.074408 -42.681730 25.470948 0.000000 0.000000 -0.000000 0.000000 0.000000 -0.000000 0.000000 0.000000 -0.000000
0.141254 -0.202190 0.489190 0.000000 0.000000 0.000000 1.857159 5.942550 0.968458 29.390504 -24.497082 6.065372 -25.182831 18.458267 3.098283 -0.000000 0.000000 -0.000000 -17.756446 20.121241 3.179033 31.111160 3.311819 -13.050569 -0.000000 0.000000 0.000000 -20.222607 18.319473 0.323042 -29.494040 3.209945 -2.775524 -0.000000 0.000000 0.000000 -11.629477 -3.807101 6.564821 8.696277 -8.094326 -19.646316 -11.501719 0.616698 18.962631 0.000000 0.000000 0.000000 0.000000 0.000000 0.000000 0.000000 0.000000 0.000000 -8.698615 -4.211651 3.026864 -8.964328 -5.219865 -14.791212 29.550324 -49.650061 35.837007 0.000000 0.000000 -0.000000 0.000000 0.000000 -0.000000 0.000000 0.000000 -0.000000
0.127032 -0.191978 0.509501 0.000000 0.000000 0.000000 2.194966 6.211683 0.495547 29.186134 -24.195108 6.880741 -22.964365 18.410432 3.248876 0.000000 0.000000 -0.000000 -11.419801 21.280517 -3.016048 27.464950 8.456868 -22.041246 0.000000 0.000000 0.000000 -17.489895 17.809097 0.013598 -33.707661 1.454020 -1.629377 0.000000 0.000000 -0.000000 -9.350873 -4.199576 6.269513 0.860252 -6.751561 -20.454751 -5.561986 0.972823 18.548674 -0.000000 0.000000 0.000000 -0.000000 0.000000 0.000000 -0.000000 0.000000 0.000000 -8.042189 -3.827074 5.275412 0.254328 -6.455534 -15.100307 34.904723 -52.504063 46.503932 -0.000000 0.000000 0.000000 -0.000000 0.000000 0.000000 -0.000000 0.000000 0.000000
0.115283 -0.185117 0.516820 0.000000 0.000000 0.000000 2.599267 6.477870 0.072908 28.902675 -23.964459 7.788877 -17.835735 18.419904 1.838554 0.000000 0.000000 -0.000000 -6.960857 21.743142 -8.188463 23.049226 12.497918 -28.349080 -0.000000 0.000000 0.000000 -15.815157 17.463401 -0.263912 -35.955366 0.566132 -1.088468 0.000000 0.000000 -0.000000 -6.560593 -4.551899 5.961206 -7.400927 -5.415498 -20.895084 -0.426232 0.748317 17.873225 -0.000000 0.000000 0.000000 -0.000000 0.000000 0.000000 -0.000000 0.000000 0.000000 -6.984313 -3.518981 7.055864 6.492809 -7.278067 -14.549984 37.557336 -53.074565 53.723033 0.000000 0.000000 -0.000000 0.000000 0.000000 -0.000000 0.000000 0.000000 -0.000000
0.099763 -0.179930 0.501455 0.000000 0.000000 0.000000 3.565793 7.080310 -0.451490 28.397950 -23.738401 8.412785 -16.546647 17.822494 1.059018 0.000000 0.000000 0.000000 -3.288704 21.570220 -12.831775 18.326829 14.245311 -28.592794 -0.000000 0.000000 -0.000000 -9.136399 16.204141 -3.604953 -38.216867 -3.092019 3.431052 0.000000 0.000000 -0.000000 -6.062925 -5.250871 5.922279 -12.868801 -4.527065 -21.514922 2.938334 -0.617320 17.462562 -0.000000 0.000000 0.000000 -0.000000 0.000000 0.000000 -0.000000 0.000000 0.000000 -7.729847 -3.878779 8.106660 9.809974 -7.173843 -13.306212 41.752561 -53.703533 58.804427 0.000000 0.000000 -0.000000 0.000000 0.000000 -0.000000 0.000000 0.000000 -0.000000
0.087344 -0.177626 0.482578 0.000000 0.000000 0.000000 4.336070 7.296617 -0.919877 27.919151 -23.334613 8.609275 -14.348159 17.235785 0.020780 -0.000000 0.000000 0.000000 -0.652478 21.298078 -16.645127 14.756396 15.699137 -28.749185 0.000000 0.000000 0.000000 -4.106236 14.971344 -6.173885 -44.229351 -5.972741 6.268824 -0.000000 0.000000 -0.000000 -6.075556 -5.552513 6.043763 -17.141115 -3.755003 -22.103448 4.425896 -0.846640 16.517123 0.000000 0.000000 -0.000000 0.000000 0.000000 -0.000000 0.000000 0.000000 -0.000000 -7.838670 -3.759182 9.323248 10.882662 -7.075953 -12.636569 43.895790 -54.285045 60.924403 0.000000 0.000000 -0.000000 0.000000 0.000000 -0.000000 0.000000 0.000000 -0.000000
0.074942 -0.175613 0.477323 0.000000 0.000000 0.000000 4.880029 7.737031 -1.319043 28.168909 -23.476400 9.560724 -14.774016 17.217305 -0.506344 0.000000 0.000000 0.000000 0.774381 21.137951 -17.690085 12.129108 15.726276 -29.002588 0.000000 0.000000 0.000000 -3.428258 14.748772 -7.373952 -43.940520 -5.155367 6.188568 -0.000000 0.000000 0.000000 -5.948495 -6.037921 6.222814 -20.611710 -3.182784 -22.857504 6.718871 -1.886601 17.048200 0.000000 0.000000 0.000000 0.000000 0.000000 0.000000 0.000000 0.000000 0.000000 -9.589343 -4.057767 10.345556 14.480938 -7.550305 -12.500446 46.868588 -56.026828 67.098314 -0.000000 0.000000 -0.000000 -0.000000 0.000000 -0.000000 -0.000000 0.000000 -0.000000
0.062722 -0.180809 0.493400 0.000000 0.000000 0.000000 5.042267 7.231866 -1.300216 27.631598 -22.111944 9.345553 -14.872376 16.264979 -1.404443 0.000000 0.000000 -0.000000 -0.104720 20.332203 -18.368359 16.570568 17.116015 -32.858953 0.000000 0.000000 -0.000000 -4.840592 14.090567 -6.022345 -36.949736 -2.565277 4.873829 -0.000000 0.000000 0.000000 -7.213762 -5.803231 5.548685 -24.408028 -2.023178 -22.773681 13.361573 8.151987 13.887761 -0.000000 0.000000 0.000000 -0.000000 0.000000 0.000000 -0.000000 0.000000 0.000000 -13.034555 -3.792221 10.572008 23.752705 -8.628615 -12.001078 50.917180 -56.291513 77.588296 -0.000000 0.000000 -0.000000 -0.000000 0.000000 -0.000000 -0.000000 0.000000 -0.000000
0.044201 -0.184881 0.520408 0.000000 0.000000 0.000000 4.555524 6.811249 -0.936735 27.508097 -21.256894 8.978363 -12.302217 15.378815 -3.741749 -0.000000 0.000000 -0.000000 0.551734 19.681637 -19.328755 19.909660 17.477141 -35.481785 0.000000 0.000000 -0.000000 -7.086216 13.893284 -5.222122 -30.104515 -1.837130 4.685829 0.000000 0.000000 -0.000000 -6.877450 -5.576368 4.545203 -28.969158 -0.931634 -21.993357 17.905016 17.507241 12.211581 0.000000 0.000000 0.000000 0.000000 0.000000 0.000000 0.000000 0.000000 0.000000 -16.268691 -3.590078 10.531456 31.303164 -9.807067 -12.011471 60.522261 -55.369598 94.258434 0.000000 0.000000 0.000000 0.000000 0.000000 0.000000 0.000000 0.000000 0.000000
0.016451 -0.188193 0.532754 0.000000 0.000000 0.000000 4.040457 6.567427 -0.865087 27.788774 -21.306839 9.096145 -18.438860 16.176965 -1.041061 -0.000000 0.000000 -0.000000 1.434624 19.886632 -20.317288 26.289926 16.316714 -36.406294 -0.000000 0.000000 0.000000 -9.389546 14.579211 -4.629154 -24.593930 -2.759374 5.884986 0.000000 0.000000 -0.000000 -7.961888 -5.706039 3.458321 -27.804534 -1.070220 -21.281894 20.597172 17.885091 8.395208 0.000000 0.000000 0.000000 0.000000 0.000000 0.000000 0.000000 0.000000 0.000000 -16.393784 -3.387746 10.643159 26.466979 -9.430038 -12.947928 59.136489 -54.598257 90.043212 -0.000000 0.000000 0.000000 -0.000000 0.000000 0.000000 -0.000000 0.000000 0.000000
-0.018476 -0.186518 0.521443 0.000000 0.000000 0.000000 3.608490 6.369917 -0.736584 24.839205 -21.516673 8.751800 -19.241747 16.717392 2.035799 0.000000 0.000000 -0.000000 4.972428 19.616401 -20.392021 29.783387 14.400051 -34.452620 0.000000 0.000000 -0.000000 -6.979496 14.705030 -4.346877 -22.195832 -4.862042 7.776322 -0.000000 0.000000 0.000000 -10.912906 -6.061665 1.559946 -22.321681 -1.692669 -19.144719 19.772436 13.125122 11.610393 0.000000 0.000000 -0.000000 0.000000 0.000000 -0.000000 0.000000 0.000000 -0.000000 -15.268812 -3.420945 9.626932 18.537115 -7.830207 -13.008023 71.346711 -54.981474 94.881033 0.000000 0.000000 0.000000 0.000000 0.000000 0.000000 0.000000 0.000000 0.000000
-0.058275 -0.181025 0.503458 0.000000 0.000000 0.000000 3.166352 5.311294 -0.637894 21.375113 -21.776777 7.776886 -18.211327 17.825242 5.532056 0.000000 0.000000 -0.000000 6.890195 20.344606 -19.086107 28.237513 12.196631 -25.917716 -0.000000 0.000000 0.000000 -4.302257 15.555628 -2.677470 -17.991709 -5.351889 7.831982 -0.000000 0.000000 0.000000 -12.112228 -5.401141 0.200519 -18.490945 -2.201890 -17.580760 20.569321 1.619953 12.986005 0.000000 0.000000 -0.000000 0.000000 0.000000 -0.000000 0.000000 0.000000 -0.000000 -13.744733 -2.743585 8.427799 14.440997 -6.749678 -12.408191 99.046475 -49.924791 117.283045 -0.000000 0.000000 -0.000000 -0.000000 0.000000 -0.000000 -0.000000 0.000000 -0.000000
-0.093889 -0.176504 0.485918 0.000000 0.000000 0.000000 2.854488 4.944026 -0.733092 18.600174 -22.698549 7.096754 -16.949481 18.887101 8.707594 0.000000 0.000000 -0.000000 9.030074 21.181572 -17.859755 24.497851 9.999013 -18.831026 -0.000000 0.000000 0.000000 -2.404977 16.548148 -0.579139 -14.119256 -5.455060 7.148684 0.000000 0.000000 -0.000000 -13.131673 -5.339055 -0.746100 -15.056234 -2.566695 -16.471144 24.440678 -12.001596 16.374615 0.000000 0.000000 -0.000000 0.000000 0.000000 -0.000000 0.000000 0.000000 -0.000000 -12.272054 -2.753878 7.326539 12.089511 -5.925866 -11.495084 114.335806 -42.867527 129.150475 -0.000000 0.000000 -0.000000 -0.000000 0.000000 -0.000000 -0.000000 0.000000 -0.000000
-0.156820 -0.170325 0.471300 0.000000 0.000000 0.000000 1.848512 7.615641 1.500858 4.714826 -20.309975 0.335753 -4.742609 12.891551 18.692919 -0.000000 0.000000 -0.000000 18.213463 14.916419 -11.992159 24.775385 4.715470 -7.327965 -0.000000 0.000000 0.000000 5.965272 10.907374 -0.150603 -3.984941 -12.568074 17.124226 0.000000 0.000000 -0.000000 -14.055036 -6.956435 -1.455133 -10.686293 -3.373387 -20.189157 17.602624 -13.318984 16.643771 0.000000 0.000000 0.000000 0.000000 0.000000 0.000000 0.000000 0.000000 0.000000 -6.993616 -4.146634 6.570148 9.430836 -5.547126 -10.600730 117.181048 -38.930108 133.284993 -0.000000 0.000000 -0.000000 -0.000000 0.000000 -0.000000 -0.000000 0.000000 -0.000000
